<svg xmlns="http://www.w3.org/2000/svg" width="85" height="85">
    <path d="M.469 1.469h82.062v82.062H.469z" fill="#212121"/>
    <path d="M23.905 35.679h3.673V15.741h-3.342s-5.542 11.616-5.754 12.049V15.741h-3.646v19.938h3.392l5.677-11.609v11.609zm10.27-3.479a5.931 5.931 0 00.35-.995 31.772 31.772 0 00.62-6.455l.2-5.482h3.924V32.2h-5.094zm-5.242 3.469h15.44V32.2h-1.459l-.027-16.459h-10.82l-.276 8.186c-.07 2.289-.072 5.457-.91 7.185a3.561 3.561 0 01-.779 1.064c-.2.048-.391.091-.574.131-.207.044-.422.085-.646.121l-.272.045v3.2h.324zm16.826.007h10.587v-3.668H49.1v-4.643h6.233v-3.531H49.1v-4.506h7.241v-3.587H45.434v19.938h.324zm24.406 0V15.741h-3.342l-5.755 12.048V15.741h-3.645v19.938h3.391L66.49 24.07v11.609h3.674zm-39.994 8.176a1.57 1.57 0 01-.038.359.754.754 0 01-.12.273.529.529 0 01-.209.168.869.869 0 01-.357.064h-.791v-1.667h.781a.661.661 0 01.562.2.953.953 0 01.172.6m-.095-2.875a.829.829 0 01-.173.552.677.677 0 01-.551.195h-.7v-1.47h.686a.724.724 0 01.564.181.781.781 0 01.171.543m.946 4.586a2.275 2.275 0 00.556-1.64 2.6 2.6 0 00-.056-.53 1.981 1.981 0 00-.177-.494 1.449 1.449 0 00-.32-.413 1.247 1.247 0 00-.2-.145 1.338 1.338 0 00.463-.524 2.027 2.027 0 00.194-.879 2.12 2.12 0 00-.519-1.5 2 2 0 00-1.538-.562h-2.2v7.265h2.318a1.984 1.984 0 001.482-.579m3.625-2.27h-.918l.29-1.179-.159-.039.081.016.079.019.171-.789c0 .02.009.043.015.064.034.151.066.3.094.434s.049.24.064.3zm.7 2.85h1.51l-2.017-7.262h-1.308l-2.007 7.265h1.482l.039-.12c.021-.067.048-.168.083-.309s.074-.289.115-.447l.117-.444c.018-.068.034-.125.046-.175h1.57zm1.856 0h6.615v-7.262H42.4v5.867h-1.17v-5.867h-1.437v5.867h-1.151v-5.867H37.2v7.265zm7.623 0h3.855v-1.423h-2.6v-1.559h2.235v-1.376h-2.232v-1.509h2.6v-1.4h-4.029v7.265h.171zm5.758-5.869h2.561v-1.4h-3.987v7.265h1.426v-5.863zm5.741 3.688a.788.788 0 01-.22.6.7.7 0 01-.523.216.642.642 0 01-.6-.26 1.33 1.33 0 01-.192-.743l-.008-2.647a1.1 1.1 0 01.041-.293.873.873 0 01.13-.277.721.721 0 01.242-.21.762.762 0 01.378-.082.638.638 0 01.357.087.767.767 0 01.233.225.908.908 0 01.125.281 1.13 1.13 0 01.037.261v2.844zm1.445-.089v-2.733a2.739 2.739 0 00-.127-.821 2.128 2.128 0 00-.4-.746 2.084 2.084 0 00-.688-.535 2.184 2.184 0 00-.979-.208 2.231 2.231 0 00-1.027.218 2.077 2.077 0 00-.684.555 2.171 2.171 0 00-.382.744 2.849 2.849 0 00-.116.793v2.617a3.345 3.345 0 00.121.915 2.2 2.2 0 00.386.785 1.844 1.844 0 00.694.547 2.335 2.335 0 001.007.2 2.36 2.36 0 00.881-.161 2.036 2.036 0 00.7-.473 2.117 2.117 0 00.456-.74 2.748 2.748 0 00.158-.955m6.445 17.8l1.544-6.231 1.416 6.231h-2.96zM67.4 49.33h-3.417l-5.524 19.988H62.3l1.091-4.168h4.629l1.036 4.168h3.894zM49.825 59.792l-4.2-10.463h-3.436v19.989h3.676V59.069l2.7 6.775h2.593l2.675-6.74v10.214h3.677V49.329h-3.462zM37.017 63.38a2.354 2.354 0 01-.659 1.784 2.167 2.167 0 01-1.57.647 1.972 1.972 0 01-1.806-.8 3.919 3.919 0 01-.559-2.16l-.026-7.4a3.418 3.418 0 01.122-.861 2.61 2.61 0 01.39-.827 2.169 2.169 0 01.72-.627 2.294 2.294 0 011.132-.252 1.969 1.969 0 011.087.268 2.336 2.336 0 01.69.671 2.638 2.638 0 01.368.832 3.242 3.242 0 01.11.77v7.955zM39.3 51.21a5.683 5.683 0 00-1.874-1.459 5.943 5.943 0 00-2.669-.561 6.039 6.039 0 00-2.794.592 5.58 5.58 0 00-1.861 1.5 5.876 5.876 0 00-1.042 2.029 7.824 7.824 0 00-.318 2.173V62.8a9.4 9.4 0 00.331 2.516 6.12 6.12 0 001.052 2.141 5.111 5.111 0 001.887 1.485 6.374 6.374 0 002.744.543h.006a6.4 6.4 0 002.4-.439 5.371 5.371 0 001.907-1.285 5.794 5.794 0 001.241-2.015 7.494 7.494 0 00.431-2.614v-7.645a7.526 7.526 0 00-.347-2.25 5.865 5.865 0 00-1.1-2.028M22.74 65.837h-5.115a5.776 5.776 0 00.354-1 14.017 14.017 0 00.34-1.863q.121-1.013.174-2.19t.107-2.42l.2-5.5h3.94v12.973zm3.624-16.508H15.519l-.278 8.206q-.052 1.859-.132 3.229a17.528 17.528 0 01-.273 2.346 6.838 6.838 0 01-.507 1.634 3.567 3.567 0 01-.782 1.067c-.2.048-.393.091-.578.132-.207.046-.423.086-.648.122l-.271.045v3.2h15.8v-3.472h-1.458zM85 85H0V0h85v85zM3.148 81.852h78.7V3.148h-78.7v78.7z"
          fill="#fff" fill-rule="evenodd"/>
</svg>