<?xml version="1.0" encoding="utf-8"?>
<!-- Generator: Adobe Illustrator 21.0.0, SVG Export Plug-In . SVG Version: 6.00 Build 0)  -->
<svg version="1.1" id="Слой_1" xmlns="http://www.w3.org/2000/svg" xmlns:xlink="http://www.w3.org/1999/xlink" x="0px" y="0px"
	 viewBox="0 0 321 144.7" style="enable-background:new 0 0 321 144.7;" xml:space="preserve">
<style type="text/css">
	.st0{fill:#888E92;}
	.st1{fill:#FEFEFE;}
</style>
<path class="st0" d="M0,117.7h321V0H0V117.7z"/>
<g transform="translate(17.192 54.839)">
	<g transform="translate(136.461)">
		<path class="st1" d="M5.7,24.3H21c3.2,0.1,5.8,2.5,6.1,5.6l1.7,16.4h-3.5l-1.5-15.9c-0.1-1.4-1.3-2.5-2.7-2.5h-13L6.3,46.2H2.1
			V16.1c0-4.7-0.4-8.8-2.1-11h3.7c1.5,2.2,2.1,6.3,2.1,11L5.7,24.3L5.7,24.3z"/>
		<path class="st1" d="M29.1,22.1H14c-3.2,0-5.9-2.4-6.1-5.6L6.2,0h3.4l1.6,16c0.2,1.4,1.3,2.4,2.7,2.4h13L28.8,0h4.1v30.2
			c0,4.8,0.5,8.9,2.1,11.1h-3.7c-1.6-2.2-2.1-6.3-2.1-11L29.1,22.1z"/>
	</g>
	<path class="st1" d="M111.3,42.8l11.4-39.3l11.5,39.3H133l-3.7-12.9h-13l-3.7,12.9H111.3z M116.6,28.8H129l-6.3-21.5L116.6,28.8z"
		/>
	<path class="st1" d="M242,42.7V5.1h1v15.4l12.9-15.4h1.7l-13.8,16.1l16.5,21.4h-1.6l-15.6-20.8v20.8H242z"/>
	<path class="st1" d="M220.5,4.1c1.6,0,3.1,0.6,4.2,1.8c1.2,1.1,1.8,2.6,1.8,4.2c0,1.1-0.3,2.1-0.9,3c-0.6,0.9-1.3,1.6-2.2,2.1
		c3.1,0.6,6,2.3,7.9,4.8c2.1,2.5,3.2,5.7,3.2,9c0,7.7-6.3,13.9-13.9,13.9c0,0,0,0,0,0h-1.1V4.1H220.5L220.5,4.1z M220.5,15.9v25.7
		c7.1,0.1,12.9-5.6,12.9-12.7c0-3.5-1.3-6.8-3.8-9.3C227.2,17.2,223.9,15.8,220.5,15.9z M220.5,14.8c2.7,0,4.8-2.2,4.9-4.9
		c0-1.3-0.5-2.5-1.4-3.4c-0.9-0.9-2.1-1.4-3.4-1.4L220.5,14.8L220.5,14.8z"/>
	<path class="st1" d="M101.1,42.7V6.1h-7.5v-1h16.1v1h-7.5v36.5H101.1z"/>
	<path class="st1" d="M87.3,41.6h0.4v1.1h-0.4c-5.2,0-10.1-2-13.8-5.7c-3.7-3.6-5.7-8.6-5.6-13.8C67.9,12.7,76.4,4,87.1,4
		c0.1,0,0.1,0,0.2,0h0.4v1.1h-0.4c-4.9-0.1-9.6,1.9-12.9,5.3c-7.1,7.1-7.1,18.7,0,25.8c0,0,0,0,0,0C77.7,39.7,82.4,41.7,87.3,41.6z"
		/>
	<path class="st1" d="M19.3,4.9c-4.9-0.1-9.5,1.9-12.9,5.3C-0.8,17.4-0.9,29,6.3,36.2s18.7,7.3,25.9,0.1s7.3-18.7,0.1-25.9
		c0,0,0,0,0,0C28.9,6.9,24.2,4.9,19.3,4.9L19.3,4.9z M19.3,3.9c10.5-0.1,19.2,8.3,19.3,18.9c0,0.2,0,0.3,0,0.5
		c0.1,5.1-1.9,10.1-5.5,13.7c-3.6,3.7-8.6,5.7-13.8,5.6c-5.1,0.1-10.1-1.9-13.7-5.6C2,33.4-0.1,28.4,0,23.3
		c-0.1-5.2,1.9-10.2,5.7-13.8C9.3,5.8,14.2,3.8,19.3,3.9L19.3,3.9z"/>
	<path class="st1" d="M46.5,42.8V4.6h9.7v1.1h-8.7v9.1c7.7,0,14,6.2,14,13.9c0,3.7-1.5,7.3-4.1,9.9c-2.6,2.7-6.2,4.1-9.9,4.1
		L46.5,42.8z M47.6,16v25.7c7.1,0.1,12.9-5.6,12.9-12.7c0-3.5-1.3-6.8-3.8-9.3C54.3,17.2,51,15.9,47.6,16L47.6,16z"/>
	<path class="st1" d="M193.1,5c-10.1,0.1-18.2,8.3-18.2,18.4c0.1,10,8.2,18.1,18.2,18.2c4.9,0.1,9.5-1.9,12.9-5.3
		c7.1-7.2,7.1-18.7,0-25.9C202.6,6.9,198,5,193.1,5z M193.1,4c5.2-0.1,10.1,1.9,13.8,5.6c3.7,3.6,5.7,8.6,5.6,13.8
		c0.1,10.7-8.5,19.4-19.2,19.5c-10.7,0.1-19.4-8.5-19.5-19.2c0-0.1,0-0.2,0-0.3c-0.1-5.2,2-10.1,5.7-13.8C183,5.9,188,3.9,193.1,4
		L193.1,4z"/>
	<path class="st1" d="M264.8,42.8l11.4-39.2l11.4,39.2h-1.2l-3.8-13h-13l-3.8,13H264.8L264.8,42.8z M270,28.8h12.4l-6.1-21.5
		L270,28.8z"/>
</g>
<path id="Path_1616" class="st0" d="M285.3,123.7l7,12.9l-4,7.6l1.9,0.5c3.5-6.8,7-13.8,10.3-20.9l-1.7-0.6l-5.3,11.2h-0.3
	l-6.3-11.3L285.3,123.7z M269.5,124.9c3.5-0.1,6.4,2.8,6.5,6.3c0.1,3.5-2.8,6.4-6.3,6.5c-3.5,0.1-6.4-2.8-6.5-6.3c0,0,0,0,0,0
	c-0.1-3.5,2.6-6.4,6.1-6.5C269.4,124.9,269.5,124.9,269.5,124.9L269.5,124.9z M263.2,116.7l-1.8,0.3v13.2c0,6.3,3.9,9.2,8,9.2
	c4.5,0,8.1-3.6,8.1-8c0-0.1,0-0.1,0-0.2c0-4.4-3.5-8-7.9-8c0,0,0,0,0,0c-2.5,0-4.9,1.2-6.3,3.3l0,0v-9.8L263.2,116.7z M246.3,137.4
	l1.6,1.8l1.6-1.8l-1.6-1.8L246.3,137.4z M228.2,130c2.2-0.2,4.2,1.5,4.4,3.7c0,0.1,0,0.1,0,0.2c-0.1,2.3-2,4.1-4.3,4.1
	c-2.3-0.1-4.1-2-4.1-4.3c0-2,1.6-3.6,3.6-3.6C228,130,228.1,130,228.2,130z M223.9,126.3l0.9-0.4c1.3-0.5,2.7-0.9,4.1-1
	c1.8-0.3,3.4,0.9,3.7,2.6c0,0.1,0,0.3,0,0.4v2.3l0,0c-1.1-1.3-2.7-2-4.4-1.9c-3-0.2-5.6,2.2-5.7,5.2c0,0.1,0,0.2,0,0.3
	c0,3.1,2.4,5.6,5.5,5.6c0.1,0,0.2,0,0.3,0c1.8,0.1,3.4-0.8,4.4-2.3l0,0v2.2l1.8-0.4v-10.9c0-0.9,0-4.9-5.5-4.9
	c-1.4,0-2.8,0.3-4.2,0.8L223.9,126.3z M205,131.1v-14.4l-1.8,0.3v22.3l1.8-0.4v-7.5l8,7.9l1.4-1.2l-7.3-7l6.5-7.1l-1.4-0.9
	L205,131.1z M181,123.2l-1.8,0.3l7.5,15.9l0,0l7.5-15.9l-1.9-0.3l-5.6,11.9L181,123.2z M157.1,131.2c0.1-3.4,2.9-6.1,6.3-6
	s6.1,2.9,6,6.3c-0.1,3.4-2.8,6-6.2,6C159.8,137.4,157.1,134.7,157.1,131.2z M155.1,132.6c0.6,3.9,4,6.8,8,6.8c4.5,0,8.1-3.6,8.1-8.1
	c0-4.5-3.6-8.1-8.1-8.1c-3.9,0.1-7.2,2.9-7.9,6.7C155.1,130.8,155,131.7,155.1,132.6L155.1,132.6z M132.6,139.4l1.8-0.4v-8.7
	c-0.3-2.7,1.7-5.1,4.5-5.4c0.1,0,0.2,0,0.3,0c2-0.1,3.7,1.4,3.8,3.3c0,0.2,0,0.4,0,0.7v10.5l1.8-0.4v-10.1c0.3-2.9-1.9-5.4-4.7-5.7
	c-0.2,0-0.4,0-0.5,0c-2.1,0-4,1.1-5.1,2.9l0,0v-2.9l-1.8,0.3L132.6,139.4L132.6,139.4z M115.1,130c2.2-0.2,4.2,1.5,4.4,3.7
	c0,0.1,0,0.1,0,0.2c-0.1,2.3-2,4.1-4.3,4.1c-2.3-0.1-4.1-2-4.1-4.3c0-2,1.6-3.6,3.6-3.6C114.9,130,115,130,115.1,130L115.1,130z
	 M110.8,126.3l0.9-0.4c1.3-0.5,2.7-0.9,4.1-1c1.8-0.3,3.5,1,3.8,2.8c0,0.1,0,0.2,0,0.3v2.3l0,0c-1.1-1.3-2.7-2-4.4-1.9
	c-3-0.2-5.6,2-5.8,5c0,0.1,0,0.3,0,0.4c0,3.1,2.4,5.6,5.5,5.6c0.1,0,0.2,0,0.3,0c1.8,0.1,3.5-0.8,4.5-2.2l0,0v2.2l1.8-0.4v-10.9
	c0-0.9,0-4.9-5.5-4.9c-1.4,0-2.8,0.3-4.2,0.8L110.8,126.3z M94.4,123.5h-1.6l-0.5,1.8h2.1v9.7c-0.3,2.2,1.3,4.1,3.4,4.4
	c0.2,0,0.5,0,0.7,0c0.6,0,1.3-0.1,1.9-0.3v-1.8c-0.4,0.2-0.9,0.3-1.4,0.3c-1.3,0.3-2.5-0.5-2.8-1.8c-0.1-0.3-0.1-0.6,0-0.9v-9.6h4.2
	v-1.8h-4.2v-5.8h-1.9V123.5L94.4,123.5z M83.2,125c-1.3-1.2-3.1-1.9-4.9-1.8c-2.3-0.3-4.4,1.4-4.7,3.7c-0.3,2.3,1.4,4.4,3.7,4.7l0,0
	c2.1,0.6,4.2,1,4.2,3.3c-0.1,1.6-1.6,2.9-3.2,2.7c-0.1,0-0.1,0-0.2,0c-1.5,0-2.9-0.7-3.8-1.9l-1.2,1.3c1.2,1.5,3,2.4,4.9,2.4
	c3.3,0,5.5-1.8,5.5-4.5c0-2.2-1.7-4-3.8-4.3c-2.1-0.6-4.2-0.8-4.2-3c0-1.5,1.2-2.7,2.6-2.7c0.1,0,0.3,0,0.4,0c1.4,0,2.7,0.5,3.7,1.5
	L83.2,125z M56,124.9c3.5-0.1,6.4,2.8,6.5,6.3c0.1,3.5-2.8,6.4-6.3,6.5c-3.5,0.1-6.4-2.8-6.5-6.3c0,0,0,0,0,0
	c-0.1-3.5,2.6-6.4,6.1-6.5c0.1,0,0.2,0,0.3,0L56,124.9z M49.7,116.7l-1.8,0.3v13.2c0,6.3,3.9,9.2,8,9.2c4.5,0,8.1-3.6,8.1-8
	c0-0.1,0-0.1,0-0.2c0.1-4.3-3.4-7.9-7.8-8c0,0-0.1,0-0.1,0c-2.5-0.1-4.9,1.2-6.3,3.4h-0.1V116.7L49.7,116.7z M23.4,131.2
	c0.1-3.4,2.9-6.1,6.3-6c3.4,0.1,6.1,2.9,6,6.3c-0.1,3.4-2.8,6-6.2,6C26.1,137.4,23.4,134.6,23.4,131.2z M21.4,132.6
	c0.6,3.9,4,6.8,8,6.8c4.5,0,8.1-3.6,8.1-8.1c0-4.5-3.6-8.1-8.1-8.1c-3.9,0.1-7.2,2.9-7.9,6.7C21.3,130.7,21.3,131.7,21.4,132.6
	L21.4,132.6z"/>
</svg>
