<svg width="175" height="37" viewBox="0 0 175 37" fill="none" xmlns="http://www.w3.org/2000/svg">
<path d="M5.34 23.78L5.25 21.08L17.97 8H20.52L11.25 17.72L9.99 19.07L5.34 23.78ZM3.42 29V8H5.64V29H3.42ZM18.51 29L9.45 18.56L10.95 16.94L21.15 29H18.51ZM27.2857 29.15C25.7657 29.15 24.3957 28.81 23.1757 28.13C21.9757 27.43 21.0257 26.48 20.3257 25.28C19.6257 24.06 19.2757 22.67 19.2757 21.11C19.2757 19.53 19.6257 18.14 20.3257 16.94C21.0257 15.74 21.9757 14.8 23.1757 14.12C24.3757 13.44 25.7457 13.1 27.2857 13.1C28.8457 13.1 30.2257 13.44 31.4257 14.12C32.6457 14.8 33.5957 15.74 34.2757 16.94C34.9757 18.14 35.3257 19.53 35.3257 21.11C35.3257 22.67 34.9757 24.06 34.2757 25.28C33.5957 26.48 32.6457 27.43 31.4257 28.13C30.2057 28.81 28.8257 29.15 27.2857 29.15ZM27.2857 27.26C28.4257 27.26 29.4357 27.01 30.3157 26.51C31.1957 25.99 31.8857 25.27 32.3857 24.35C32.9057 23.41 33.1657 22.33 33.1657 21.11C33.1657 19.87 32.9057 18.79 32.3857 17.87C31.8857 16.95 31.1957 16.24 30.3157 15.74C29.4357 15.22 28.4357 14.96 27.3157 14.96C26.1957 14.96 25.1957 15.22 24.3157 15.74C23.4357 16.24 22.7357 16.95 22.2157 17.87C21.6957 18.79 21.4357 19.87 21.4357 21.11C21.4357 22.33 21.6957 23.41 22.2157 24.35C22.7357 25.27 23.4357 25.99 24.3157 26.51C25.1957 27.01 26.1857 27.26 27.2857 27.26ZM36.9743 29V6.74H39.1043V29H36.9743ZM47.3988 29.15C45.9188 29.15 44.7788 28.75 43.9788 27.95C43.1788 27.15 42.7788 26.02 42.7788 24.56V9.77H44.9088V24.44C44.9088 25.36 45.1388 26.07 45.5988 26.57C46.0788 27.07 46.7588 27.32 47.6388 27.32C48.5788 27.32 49.3588 27.05 49.9788 26.51L50.7288 28.04C50.3088 28.42 49.7988 28.7 49.1988 28.88C48.6188 29.06 48.0188 29.15 47.3988 29.15ZM39.9588 15.02V13.25H49.7088V15.02H39.9588ZM61.7763 29V25.52L61.6863 24.95V19.13C61.6863 17.79 61.3063 16.76 60.5463 16.04C59.8063 15.32 58.6963 14.96 57.2163 14.96C56.1963 14.96 55.2263 15.13 54.3063 15.47C53.3863 15.81 52.6063 16.26 51.9663 16.82L51.0063 15.23C51.8063 14.55 52.7663 14.03 53.8863 13.67C55.0063 13.29 56.1863 13.1 57.4263 13.1C59.4663 13.1 61.0363 13.61 62.1363 14.63C63.2563 15.63 63.8163 17.16 63.8163 19.22V29H61.7763ZM56.3463 29.15C55.1663 29.15 54.1363 28.96 53.2563 28.58C52.3963 28.18 51.7363 27.64 51.2763 26.96C50.8163 26.26 50.5863 25.46 50.5863 24.56C50.5863 23.74 50.7763 23 51.1563 22.34C51.5563 21.66 52.1963 21.12 53.0763 20.72C53.9763 20.3 55.1763 20.09 56.6763 20.09H62.1063V21.68H56.7363C55.2163 21.68 54.1563 21.95 53.5563 22.49C52.9763 23.03 52.6863 23.7 52.6863 24.5C52.6863 25.4 53.0363 26.12 53.7363 26.66C54.4363 27.2 55.4163 27.47 56.6763 27.47C57.8763 27.47 58.9063 27.2 59.7663 26.66C60.6463 26.1 61.2863 25.3 61.6863 24.26L62.1663 25.73C61.7663 26.77 61.0663 27.6 60.0663 28.22C59.0863 28.84 57.8463 29.15 56.3463 29.15ZM74.9416 13.1C76.2216 13.1 77.3416 13.35 78.3016 13.85C79.2816 14.33 80.0416 15.07 80.5816 16.07C81.1416 17.07 81.4216 18.33 81.4216 19.85V29H79.2916V20.06C79.2916 18.4 78.8716 17.15 78.0316 16.31C77.2116 15.45 76.0516 15.02 74.5516 15.02C73.4316 15.02 72.4516 15.25 71.6116 15.71C70.7916 16.15 70.1516 16.8 69.6916 17.66C69.2516 18.5 69.0316 19.52 69.0316 20.72V29H66.9016V13.25H68.9416V17.57L68.6116 16.76C69.1116 15.62 69.9116 14.73 71.0116 14.09C72.1116 13.43 73.4216 13.1 74.9416 13.1ZM84.9251 29V8H93.4751C95.7151 8 97.6751 8.45 99.3551 9.35C101.055 10.23 102.375 11.46 103.315 13.04C104.255 14.62 104.725 16.44 104.725 18.5C104.725 20.56 104.255 22.38 103.315 23.96C102.375 25.54 101.055 26.78 99.3551 27.68C97.6751 28.56 95.7151 29 93.4751 29H84.9251ZM87.1451 27.08H93.3551C95.2151 27.08 96.8251 26.72 98.1851 26C99.5651 25.26 100.635 24.25 101.395 22.97C102.155 21.67 102.535 20.18 102.535 18.5C102.535 16.8 102.155 15.31 101.395 14.03C100.635 12.75 99.5651 11.75 98.1851 11.03C96.8251 10.29 95.2151 9.92 93.3551 9.92H87.1451V27.08ZM113.25 29.15C111.61 29.15 110.17 28.81 108.93 28.13C107.69 27.43 106.72 26.48 106.02 25.28C105.32 24.06 104.97 22.67 104.97 21.11C104.97 19.55 105.3 18.17 105.96 16.97C106.64 15.77 107.56 14.83 108.72 14.15C109.9 13.45 111.22 13.1 112.68 13.1C114.16 13.1 115.47 13.44 116.61 14.12C117.77 14.78 118.68 15.72 119.34 16.94C120 18.14 120.33 19.53 120.33 21.11C120.33 21.21 120.32 21.32 120.3 21.44C120.3 21.54 120.3 21.65 120.3 21.77H106.59V20.18H119.16L118.32 20.81C118.32 19.67 118.07 18.66 117.57 17.78C117.09 16.88 116.43 16.18 115.59 15.68C114.75 15.18 113.78 14.93 112.68 14.93C111.6 14.93 110.63 15.18 109.77 15.68C108.91 16.18 108.24 16.88 107.76 17.78C107.28 18.68 107.04 19.71 107.04 20.87V21.2C107.04 22.4 107.3 23.46 107.82 24.38C108.36 25.28 109.1 25.99 110.04 26.51C111 27.01 112.09 27.26 113.31 27.26C114.27 27.26 115.16 27.09 115.98 26.75C116.82 26.41 117.54 25.89 118.14 25.19L119.34 26.57C118.64 27.41 117.76 28.05 116.7 28.49C115.66 28.93 114.51 29.15 113.25 29.15ZM126.196 29.15C124.896 29.15 123.666 28.97 122.506 28.61C121.346 28.23 120.436 27.76 119.776 27.2L120.736 25.52C121.376 26 122.196 26.42 123.196 26.78C124.196 27.12 125.246 27.29 126.346 27.29C127.846 27.29 128.926 27.06 129.586 26.6C130.246 26.12 130.576 25.49 130.576 24.71C130.576 24.13 130.386 23.68 130.006 23.36C129.646 23.02 129.166 22.77 128.566 22.61C127.966 22.43 127.296 22.28 126.556 22.16C125.816 22.04 125.076 21.9 124.336 21.74C123.616 21.58 122.956 21.35 122.356 21.05C121.756 20.73 121.266 20.3 120.886 19.76C120.526 19.22 120.346 18.5 120.346 17.6C120.346 16.74 120.586 15.97 121.066 15.29C121.546 14.61 122.246 14.08 123.166 13.7C124.106 13.3 125.246 13.1 126.586 13.1C127.606 13.1 128.626 13.24 129.646 13.52C130.666 13.78 131.506 14.13 132.166 14.57L131.236 16.28C130.536 15.8 129.786 15.46 128.986 15.26C128.186 15.04 127.386 14.93 126.586 14.93C125.166 14.93 124.116 15.18 123.436 15.68C122.776 16.16 122.446 16.78 122.446 17.54C122.446 18.14 122.626 18.61 122.986 18.95C123.366 19.29 123.856 19.56 124.456 19.76C125.076 19.94 125.746 20.09 126.466 20.21C127.206 20.33 127.936 20.48 128.656 20.66C129.396 20.82 130.066 21.05 130.666 21.35C131.286 21.63 131.776 22.04 132.136 22.58C132.516 23.1 132.706 23.79 132.706 24.65C132.706 25.57 132.446 26.37 131.926 27.05C131.426 27.71 130.686 28.23 129.706 28.61C128.746 28.97 127.576 29.15 126.196 29.15ZM133.914 29V13.25H136.044V29H133.914ZM134.994 9.77C134.554 9.77 134.184 9.62 133.884 9.32C133.584 9.02 133.434 8.66 133.434 8.24C133.434 7.82 133.584 7.47 133.884 7.19C134.184 6.89 134.554 6.74 134.994 6.74C135.434 6.74 135.804 6.88 136.104 7.16C136.404 7.44 136.554 7.79 136.554 8.21C136.554 8.65 136.404 9.02 136.104 9.32C135.824 9.62 135.454 9.77 134.994 9.77ZM145.991 34.97C144.551 34.97 143.171 34.76 141.851 34.34C140.531 33.92 139.461 33.32 138.641 32.54L139.721 30.92C140.461 31.58 141.371 32.1 142.451 32.48C143.551 32.88 144.711 33.08 145.931 33.08C147.931 33.08 149.401 32.61 150.341 31.67C151.281 30.75 151.751 29.31 151.751 27.35V23.42L152.051 20.72L151.841 18.02V13.25H153.881V27.08C153.881 29.8 153.211 31.79 151.871 33.05C150.551 34.33 148.591 34.97 145.991 34.97ZM145.601 28.4C144.101 28.4 142.751 28.08 141.551 27.44C140.351 26.78 139.401 25.87 138.701 24.71C138.021 23.55 137.681 22.22 137.681 20.72C137.681 19.22 138.021 17.9 138.701 16.76C139.401 15.6 140.351 14.7 141.551 14.06C142.751 13.42 144.101 13.1 145.601 13.1C147.001 13.1 148.261 13.39 149.381 13.97C150.501 14.55 151.391 15.41 152.051 16.55C152.711 17.69 153.041 19.08 153.041 20.72C153.041 22.36 152.711 23.75 152.051 24.89C151.391 26.03 150.501 26.9 149.381 27.5C148.261 28.1 147.001 28.4 145.601 28.4ZM145.811 26.51C146.971 26.51 148.001 26.27 148.901 25.79C149.801 25.29 150.511 24.61 151.031 23.75C151.551 22.87 151.811 21.86 151.811 20.72C151.811 19.58 151.551 18.58 151.031 17.72C150.511 16.86 149.801 16.19 148.901 15.71C148.001 15.21 146.971 14.96 145.811 14.96C144.671 14.96 143.641 15.21 142.721 15.71C141.821 16.19 141.111 16.86 140.591 17.72C140.091 18.58 139.841 19.58 139.841 20.72C139.841 21.86 140.091 22.87 140.591 23.75C141.111 24.61 141.821 25.29 142.721 25.79C143.641 26.27 144.671 26.51 145.811 26.51ZM165.148 13.1C166.428 13.1 167.548 13.35 168.508 13.85C169.488 14.33 170.248 15.07 170.788 16.07C171.348 17.07 171.628 18.33 171.628 19.85V29H169.498V20.06C169.498 18.4 169.078 17.15 168.238 16.31C167.418 15.45 166.258 15.02 164.758 15.02C163.638 15.02 162.658 15.25 161.818 15.71C160.998 16.15 160.358 16.8 159.898 17.66C159.458 18.5 159.238 19.52 159.238 20.72V29H157.108V13.25H159.148V17.57L158.818 16.76C159.318 15.62 160.118 14.73 161.218 14.09C162.318 13.43 163.628 13.1 165.148 13.1Z" fill="black"/>
</svg>
