<svg width="180" height="47" viewBox="0 0 180 47" fill="none" xmlns="http://www.w3.org/2000/svg">
<path d="M5.34 23.78L5.25 21.08L17.97 8H20.52L11.25 17.72L9.99 19.07L5.34 23.78ZM3.42 29V8H5.64V29H3.42ZM18.51 29L9.45 18.56L10.95 16.94L21.15 29H18.51ZM27.2857 29.15C25.7657 29.15 24.3957 28.81 23.1757 28.13C21.9757 27.43 21.0257 26.48 20.3257 25.28C19.6257 24.06 19.2757 22.67 19.2757 21.11C19.2757 19.53 19.6257 18.14 20.3257 16.94C21.0257 15.74 21.9757 14.8 23.1757 14.12C24.3757 13.44 25.7457 13.1 27.2857 13.1C28.8457 13.1 30.2257 13.44 31.4257 14.12C32.6457 14.8 33.5957 15.74 34.2757 16.94C34.9757 18.14 35.3257 19.53 35.3257 21.11C35.3257 22.67 34.9757 24.06 34.2757 25.28C33.5957 26.48 32.6457 27.43 31.4257 28.13C30.2057 28.81 28.8257 29.15 27.2857 29.15ZM27.2857 27.26C28.4257 27.26 29.4357 27.01 30.3157 26.51C31.1957 25.99 31.8857 25.27 32.3857 24.35C32.9057 23.41 33.1657 22.33 33.1657 21.11C33.1657 19.87 32.9057 18.79 32.3857 17.87C31.8857 16.95 31.1957 16.24 30.3157 15.74C29.4357 15.22 28.4357 14.96 27.3157 14.96C26.1957 14.96 25.1957 15.22 24.3157 15.74C23.4357 16.24 22.7357 16.95 22.2157 17.87C21.6957 18.79 21.4357 19.87 21.4357 21.11C21.4357 22.33 21.6957 23.41 22.2157 24.35C22.7357 25.27 23.4357 25.99 24.3157 26.51C25.1957 27.01 26.1857 27.26 27.2857 27.26ZM36.9743 29V6.74H39.1043V29H36.9743ZM47.3988 29.15C45.9188 29.15 44.7788 28.75 43.9788 27.95C43.1788 27.15 42.7788 26.02 42.7788 24.56V9.77H44.9088V24.44C44.9088 25.36 45.1388 26.07 45.5988 26.57C46.0788 27.07 46.7588 27.32 47.6388 27.32C48.5788 27.32 49.3588 27.05 49.9788 26.51L50.7288 28.04C50.3088 28.42 49.7988 28.7 49.1988 28.88C48.6188 29.06 48.0188 29.15 47.3988 29.15ZM39.9588 15.02V13.25H49.7088V15.02H39.9588ZM61.7763 29V25.52L61.6863 24.95V19.13C61.6863 17.79 61.3063 16.76 60.5463 16.04C59.8063 15.32 58.6963 14.96 57.2163 14.96C56.1963 14.96 55.2263 15.13 54.3063 15.47C53.3863 15.81 52.6063 16.26 51.9663 16.82L51.0063 15.23C51.8063 14.55 52.7663 14.03 53.8863 13.67C55.0063 13.29 56.1863 13.1 57.4263 13.1C59.4663 13.1 61.0363 13.61 62.1363 14.63C63.2563 15.63 63.8163 17.16 63.8163 19.22V29H61.7763ZM56.3463 29.15C55.1663 29.15 54.1363 28.96 53.2563 28.58C52.3963 28.18 51.7363 27.64 51.2763 26.96C50.8163 26.26 50.5863 25.46 50.5863 24.56C50.5863 23.74 50.7763 23 51.1563 22.34C51.5563 21.66 52.1963 21.12 53.0763 20.72C53.9763 20.3 55.1763 20.09 56.6763 20.09H62.1063V21.68H56.7363C55.2163 21.68 54.1563 21.95 53.5563 22.49C52.9763 23.03 52.6863 23.7 52.6863 24.5C52.6863 25.4 53.0363 26.12 53.7363 26.66C54.4363 27.2 55.4163 27.47 56.6763 27.47C57.8763 27.47 58.9063 27.2 59.7663 26.66C60.6463 26.1 61.2863 25.3 61.6863 24.26L62.1663 25.73C61.7663 26.77 61.0663 27.6 60.0663 28.22C59.0863 28.84 57.8463 29.15 56.3463 29.15ZM74.9416 13.1C76.2216 13.1 77.3416 13.35 78.3016 13.85C79.2816 14.33 80.0416 15.07 80.5816 16.07C81.1416 17.07 81.4216 18.33 81.4216 19.85V29H79.2916V20.06C79.2916 18.4 78.8716 17.15 78.0316 16.31C77.2116 15.45 76.0516 15.02 74.5516 15.02C73.4316 15.02 72.4516 15.25 71.6116 15.71C70.7916 16.15 70.1516 16.8 69.6916 17.66C69.2516 18.5 69.0316 19.52 69.0316 20.72V29H66.9016V13.25H68.9416V17.57L68.6116 16.76C69.1116 15.62 69.9116 14.73 71.0116 14.09C72.1116 13.43 73.4216 13.1 74.9416 13.1ZM90.0766 29V8H98.6266C100.867 8 102.827 8.45 104.507 9.35C106.207 10.23 107.527 11.46 108.467 13.04C109.407 14.62 109.877 16.44 109.877 18.5C109.877 20.56 109.407 22.38 108.467 23.96C107.527 25.54 106.207 26.78 104.507 27.68C102.827 28.56 100.867 29 98.6266 29H90.0766ZM92.2966 27.08H98.5066C100.367 27.08 101.977 26.72 103.337 26C104.717 25.26 105.787 24.25 106.547 22.97C107.307 21.67 107.687 20.18 107.687 18.5C107.687 16.8 107.307 15.31 106.547 14.03C105.787 12.75 104.717 11.75 103.337 11.03C101.977 10.29 100.367 9.92 98.5066 9.92H92.2966V27.08ZM118.402 29.15C116.762 29.15 115.322 28.81 114.082 28.13C112.842 27.43 111.872 26.48 111.172 25.28C110.472 24.06 110.122 22.67 110.122 21.11C110.122 19.55 110.452 18.17 111.112 16.97C111.792 15.77 112.712 14.83 113.872 14.15C115.052 13.45 116.372 13.1 117.832 13.1C119.312 13.1 120.622 13.44 121.762 14.12C122.922 14.78 123.832 15.72 124.492 16.94C125.152 18.14 125.482 19.53 125.482 21.11C125.482 21.21 125.472 21.32 125.452 21.44C125.452 21.54 125.452 21.65 125.452 21.77H111.742V20.18H124.312L123.472 20.81C123.472 19.67 123.222 18.66 122.722 17.78C122.242 16.88 121.582 16.18 120.742 15.68C119.902 15.18 118.932 14.93 117.832 14.93C116.752 14.93 115.782 15.18 114.922 15.68C114.062 16.18 113.392 16.88 112.912 17.78C112.432 18.68 112.192 19.71 112.192 20.87V21.2C112.192 22.4 112.452 23.46 112.972 24.38C113.512 25.28 114.252 25.99 115.192 26.51C116.152 27.01 117.242 27.26 118.462 27.26C119.422 27.26 120.312 27.09 121.132 26.75C121.972 26.41 122.692 25.89 123.292 25.19L124.492 26.57C123.792 27.41 122.912 28.05 121.852 28.49C120.812 28.93 119.662 29.15 118.402 29.15ZM131.347 29.15C130.047 29.15 128.817 28.97 127.657 28.61C126.497 28.23 125.587 27.76 124.927 27.2L125.887 25.52C126.527 26 127.347 26.42 128.347 26.78C129.347 27.12 130.397 27.29 131.497 27.29C132.997 27.29 134.077 27.06 134.737 26.6C135.397 26.12 135.727 25.49 135.727 24.71C135.727 24.13 135.537 23.68 135.157 23.36C134.797 23.02 134.317 22.77 133.717 22.61C133.117 22.43 132.447 22.28 131.707 22.16C130.967 22.04 130.227 21.9 129.487 21.74C128.767 21.58 128.107 21.35 127.507 21.05C126.907 20.73 126.417 20.3 126.037 19.76C125.677 19.22 125.497 18.5 125.497 17.6C125.497 16.74 125.737 15.97 126.217 15.29C126.697 14.61 127.397 14.08 128.317 13.7C129.257 13.3 130.397 13.1 131.737 13.1C132.757 13.1 133.777 13.24 134.797 13.52C135.817 13.78 136.657 14.13 137.317 14.57L136.387 16.28C135.687 15.8 134.937 15.46 134.137 15.26C133.337 15.04 132.537 14.93 131.737 14.93C130.317 14.93 129.267 15.18 128.587 15.68C127.927 16.16 127.597 16.78 127.597 17.54C127.597 18.14 127.777 18.61 128.137 18.95C128.517 19.29 129.007 19.56 129.607 19.76C130.227 19.94 130.897 20.09 131.617 20.21C132.357 20.33 133.087 20.48 133.807 20.66C134.547 20.82 135.217 21.05 135.817 21.35C136.437 21.63 136.927 22.04 137.287 22.58C137.667 23.1 137.857 23.79 137.857 24.65C137.857 25.57 137.597 26.37 137.077 27.05C136.577 27.71 135.837 28.23 134.857 28.61C133.897 28.97 132.727 29.15 131.347 29.15ZM139.066 29V13.25H141.196V29H139.066ZM140.146 9.77C139.706 9.77 139.336 9.62 139.036 9.32C138.736 9.02 138.586 8.66 138.586 8.24C138.586 7.82 138.736 7.47 139.036 7.19C139.336 6.89 139.706 6.74 140.146 6.74C140.586 6.74 140.956 6.88 141.256 7.16C141.556 7.44 141.706 7.79 141.706 8.21C141.706 8.65 141.556 9.02 141.256 9.32C140.976 9.62 140.606 9.77 140.146 9.77ZM151.142 34.97C149.702 34.97 148.322 34.76 147.002 34.34C145.682 33.92 144.612 33.32 143.792 32.54L144.872 30.92C145.612 31.58 146.522 32.1 147.602 32.48C148.702 32.88 149.862 33.08 151.082 33.08C153.082 33.08 154.552 32.61 155.492 31.67C156.432 30.75 156.902 29.31 156.902 27.35V23.42L157.202 20.72L156.992 18.02V13.25H159.032V27.08C159.032 29.8 158.362 31.79 157.022 33.05C155.702 34.33 153.742 34.97 151.142 34.97ZM150.752 28.4C149.252 28.4 147.902 28.08 146.702 27.44C145.502 26.78 144.552 25.87 143.852 24.71C143.172 23.55 142.832 22.22 142.832 20.72C142.832 19.22 143.172 17.9 143.852 16.76C144.552 15.6 145.502 14.7 146.702 14.06C147.902 13.42 149.252 13.1 150.752 13.1C152.152 13.1 153.412 13.39 154.532 13.97C155.652 14.55 156.542 15.41 157.202 16.55C157.862 17.69 158.192 19.08 158.192 20.72C158.192 22.36 157.862 23.75 157.202 24.89C156.542 26.03 155.652 26.9 154.532 27.5C153.412 28.1 152.152 28.4 150.752 28.4ZM150.962 26.51C152.122 26.51 153.152 26.27 154.052 25.79C154.952 25.29 155.662 24.61 156.182 23.75C156.702 22.87 156.962 21.86 156.962 20.72C156.962 19.58 156.702 18.58 156.182 17.72C155.662 16.86 154.952 16.19 154.052 15.71C153.152 15.21 152.122 14.96 150.962 14.96C149.822 14.96 148.792 15.21 147.872 15.71C146.972 16.19 146.262 16.86 145.742 17.72C145.242 18.58 144.992 19.58 144.992 20.72C144.992 21.86 145.242 22.87 145.742 23.75C146.262 24.61 146.972 25.29 147.872 25.79C148.792 26.27 149.822 26.51 150.962 26.51ZM170.299 13.1C171.579 13.1 172.699 13.35 173.659 13.85C174.639 14.33 175.399 15.07 175.939 16.07C176.499 17.07 176.779 18.33 176.779 19.85V29H174.649V20.06C174.649 18.4 174.229 17.15 173.389 16.31C172.569 15.45 171.409 15.02 169.909 15.02C168.789 15.02 167.809 15.25 166.969 15.71C166.149 16.15 165.509 16.8 165.049 17.66C164.609 18.5 164.389 19.52 164.389 20.72V29H162.259V13.25H164.299V17.57L163.969 16.76C164.469 15.62 165.269 14.73 166.369 14.09C167.469 13.43 168.779 13.1 170.299 13.1Z"/>
<path d="M61.912 45V39.4H62.504V45H61.912ZM66.3501 40.76C66.6914 40.76 66.9901 40.8267 67.2461 40.96C67.5074 41.088 67.7101 41.2853 67.8541 41.552C68.0034 41.8187 68.0781 42.1547 68.0781 42.56V45H67.5101V42.616C67.5101 42.1733 67.3981 41.84 67.1741 41.616C66.9554 41.3867 66.6461 41.272 66.2461 41.272C65.9474 41.272 65.6861 41.3333 65.4621 41.456C65.2434 41.5733 65.0727 41.7467 64.9501 41.976C64.8327 42.2 64.7741 42.472 64.7741 42.792V45H64.2061V40.8H64.7501V41.952L64.6621 41.736C64.7954 41.432 65.0087 41.1947 65.3021 41.024C65.5954 40.848 65.9447 40.76 66.3501 40.76ZM70.9403 45.04C70.5456 45.04 70.2416 44.9333 70.0283 44.72C69.815 44.5067 69.7083 44.2053 69.7083 43.816V39.872H70.2763V43.784C70.2763 44.0293 70.3376 44.2187 70.4603 44.352C70.5883 44.4853 70.7696 44.552 71.0043 44.552C71.255 44.552 71.463 44.48 71.6283 44.336L71.8283 44.744C71.7163 44.8453 71.5803 44.92 71.4203 44.968C71.2656 45.016 71.1056 45.04 70.9403 45.04ZM68.9563 41.272V40.8H71.5563V41.272H68.9563ZM74.4979 45.04C74.0605 45.04 73.6765 44.9493 73.3459 44.768C73.0152 44.5813 72.7565 44.328 72.5699 44.008C72.3832 43.6827 72.2899 43.312 72.2899 42.896C72.2899 42.48 72.3779 42.112 72.5539 41.792C72.7352 41.472 72.9805 41.2213 73.2899 41.04C73.6045 40.8533 73.9565 40.76 74.3459 40.76C74.7405 40.76 75.0899 40.8507 75.3939 41.032C75.7032 41.208 75.9459 41.4587 76.1219 41.784C76.2979 42.104 76.3859 42.4747 76.3859 42.896C76.3859 42.9227 76.3832 42.952 76.3779 42.984C76.3779 43.0107 76.3779 43.04 76.3779 43.072H72.7219V42.648H76.0739L75.8499 42.816C75.8499 42.512 75.7832 42.2427 75.6499 42.008C75.5219 41.768 75.3459 41.5813 75.1219 41.448C74.8979 41.3147 74.6392 41.248 74.3459 41.248C74.0579 41.248 73.7992 41.3147 73.5699 41.448C73.3405 41.5813 73.1619 41.768 73.0339 42.008C72.9059 42.248 72.8419 42.5227 72.8419 42.832V42.92C72.8419 43.24 72.9112 43.5227 73.0499 43.768C73.1939 44.008 73.3912 44.1973 73.6419 44.336C73.8979 44.4693 74.1885 44.536 74.5139 44.536C74.7699 44.536 75.0072 44.4907 75.2259 44.4C75.4499 44.3093 75.6419 44.1707 75.8019 43.984L76.1219 44.352C75.9352 44.576 75.7005 44.7467 75.4179 44.864C75.1405 44.9813 74.8339 45.04 74.4979 45.04ZM77.542 45V40.8H78.086V41.944L78.03 41.744C78.1473 41.424 78.3447 41.1813 78.622 41.016C78.8993 40.8453 79.2433 40.76 79.654 40.76V41.312C79.6327 41.312 79.6113 41.312 79.59 41.312C79.5687 41.3067 79.5473 41.304 79.526 41.304C79.0833 41.304 78.7367 41.44 78.486 41.712C78.2353 41.9787 78.11 42.36 78.11 42.856V45H77.542ZM80.6904 45V40.8H81.2584V45H80.6904ZM80.9784 39.872C80.8611 39.872 80.7624 39.832 80.6824 39.752C80.6024 39.672 80.5624 39.576 80.5624 39.464C80.5624 39.352 80.6024 39.2587 80.6824 39.184C80.7624 39.104 80.8611 39.064 80.9784 39.064C81.0958 39.064 81.1944 39.1013 81.2744 39.176C81.3544 39.2507 81.3944 39.344 81.3944 39.456C81.3944 39.5733 81.3544 39.672 81.2744 39.752C81.1998 39.832 81.1011 39.872 80.9784 39.872ZM84.5509 45.04C84.1455 45.04 83.7802 44.9493 83.4549 44.768C83.1349 44.5813 82.8815 44.328 82.6949 44.008C82.5082 43.6827 82.4149 43.312 82.4149 42.896C82.4149 42.4747 82.5082 42.104 82.6949 41.784C82.8815 41.464 83.1349 41.2133 83.4549 41.032C83.7749 40.8507 84.1402 40.76 84.5509 40.76C84.9669 40.76 85.3349 40.8507 85.6549 41.032C85.9802 41.2133 86.2335 41.464 86.4149 41.784C86.6015 42.104 86.6949 42.4747 86.6949 42.896C86.6949 43.312 86.6015 43.6827 86.4149 44.008C86.2335 44.328 85.9802 44.5813 85.6549 44.768C85.3295 44.9493 84.9615 45.04 84.5509 45.04ZM84.5509 44.536C84.8549 44.536 85.1242 44.4693 85.3589 44.336C85.5935 44.1973 85.7775 44.0053 85.9109 43.76C86.0495 43.5093 86.1189 43.2213 86.1189 42.896C86.1189 42.5653 86.0495 42.2773 85.9109 42.032C85.7775 41.7867 85.5935 41.5973 85.3589 41.464C85.1242 41.3253 84.8575 41.256 84.5589 41.256C84.2602 41.256 83.9935 41.3253 83.7589 41.464C83.5242 41.5973 83.3375 41.7867 83.1989 42.032C83.0602 42.2773 82.9909 42.5653 82.9909 42.896C82.9909 43.2213 83.0602 43.5093 83.1989 43.76C83.3375 44.0053 83.5242 44.1973 83.7589 44.336C83.9935 44.4693 84.2575 44.536 84.5509 44.536ZM87.8545 45V40.8H88.3985V41.944L88.3425 41.744C88.4598 41.424 88.6572 41.1813 88.9345 41.016C89.2118 40.8453 89.5558 40.76 89.9665 40.76V41.312C89.9452 41.312 89.9238 41.312 89.9025 41.312C89.8812 41.3067 89.8598 41.304 89.8385 41.304C89.3958 41.304 89.0492 41.44 88.7985 41.712C88.5478 41.9787 88.4225 42.36 88.4225 42.856V45H87.8545ZM94.8312 45.04C94.4312 45.04 94.0712 44.9493 93.7512 44.768C93.4365 44.5867 93.1885 44.336 93.0072 44.016C92.8259 43.6907 92.7352 43.3173 92.7352 42.896C92.7352 42.4693 92.8259 42.096 93.0072 41.776C93.1885 41.456 93.4365 41.208 93.7512 41.032C94.0712 40.8507 94.4312 40.76 94.8312 40.76C95.1992 40.76 95.5272 40.8427 95.8152 41.008C96.1085 41.1733 96.3405 41.416 96.5112 41.736C96.6872 42.0507 96.7752 42.4373 96.7752 42.896C96.7752 43.3493 96.6899 43.736 96.5192 44.056C96.3485 44.376 96.1165 44.6213 95.8232 44.792C95.5352 44.9573 95.2045 45.04 94.8312 45.04ZM94.8712 44.536C95.1699 44.536 95.4365 44.4693 95.6712 44.336C95.9112 44.1973 96.0979 44.0053 96.2312 43.76C96.3699 43.5093 96.4392 43.2213 96.4392 42.896C96.4392 42.5653 96.3699 42.2773 96.2312 42.032C96.0979 41.7867 95.9112 41.5973 95.6712 41.464C95.4365 41.3253 95.1699 41.256 94.8712 41.256C94.5779 41.256 94.3139 41.3253 94.0792 41.464C93.8445 41.5973 93.6579 41.7867 93.5192 42.032C93.3805 42.2773 93.3112 42.5653 93.3112 42.896C93.3112 43.2213 93.3805 43.5093 93.5192 43.76C93.6579 44.0053 93.8445 44.1973 94.0792 44.336C94.3139 44.4693 94.5779 44.536 94.8712 44.536ZM96.4552 45V43.736L96.5112 42.888L96.4312 42.04V39.064H96.9992V45H96.4552ZM100.365 45.04C99.9277 45.04 99.5437 44.9493 99.2131 44.768C98.8824 44.5813 98.6237 44.328 98.4371 44.008C98.2504 43.6827 98.1571 43.312 98.1571 42.896C98.1571 42.48 98.2451 42.112 98.4211 41.792C98.6024 41.472 98.8477 41.2213 99.1571 41.04C99.4717 40.8533 99.8237 40.76 100.213 40.76C100.608 40.76 100.957 40.8507 101.261 41.032C101.57 41.208 101.813 41.4587 101.989 41.784C102.165 42.104 102.253 42.4747 102.253 42.896C102.253 42.9227 102.25 42.952 102.245 42.984C102.245 43.0107 102.245 43.04 102.245 43.072H98.5891V42.648H101.941L101.717 42.816C101.717 42.512 101.65 42.2427 101.517 42.008C101.389 41.768 101.213 41.5813 100.989 41.448C100.765 41.3147 100.506 41.248 100.213 41.248C99.9251 41.248 99.6664 41.3147 99.4371 41.448C99.2077 41.5813 99.0291 41.768 98.9011 42.008C98.7731 42.248 98.7091 42.5227 98.7091 42.832V42.92C98.7091 43.24 98.7784 43.5227 98.9171 43.768C99.0611 44.008 99.2584 44.1973 99.5091 44.336C99.7651 44.4693 100.056 44.536 100.381 44.536C100.637 44.536 100.874 44.4907 101.093 44.4C101.317 44.3093 101.509 44.1707 101.669 43.984L101.989 44.352C101.802 44.576 101.568 44.7467 101.285 44.864C101.008 44.9813 100.701 45.04 100.365 45.04ZM104.537 45.04C104.191 45.04 103.863 44.992 103.553 44.896C103.244 44.7947 103.001 44.6693 102.825 44.52L103.081 44.072C103.252 44.2 103.471 44.312 103.737 44.408C104.004 44.4987 104.284 44.544 104.577 44.544C104.977 44.544 105.265 44.4827 105.441 44.36C105.617 44.232 105.705 44.064 105.705 43.856C105.705 43.7013 105.655 43.5813 105.553 43.496C105.457 43.4053 105.329 43.3387 105.169 43.296C105.009 43.248 104.831 43.208 104.633 43.176C104.436 43.144 104.239 43.1067 104.041 43.064C103.849 43.0213 103.673 42.96 103.513 42.88C103.353 42.7947 103.223 42.68 103.121 42.536C103.025 42.392 102.977 42.2 102.977 41.96C102.977 41.7307 103.041 41.5253 103.169 41.344C103.297 41.1627 103.484 41.0213 103.729 40.92C103.98 40.8133 104.284 40.76 104.641 40.76C104.913 40.76 105.185 40.7973 105.457 40.872C105.729 40.9413 105.953 41.0347 106.129 41.152L105.881 41.608C105.695 41.48 105.495 41.3893 105.281 41.336C105.068 41.2773 104.855 41.248 104.641 41.248C104.263 41.248 103.983 41.3147 103.801 41.448C103.625 41.576 103.537 41.7413 103.537 41.944C103.537 42.104 103.585 42.2293 103.681 42.32C103.783 42.4107 103.913 42.4827 104.073 42.536C104.239 42.584 104.417 42.624 104.609 42.656C104.807 42.688 105.001 42.728 105.193 42.776C105.391 42.8187 105.569 42.88 105.729 42.96C105.895 43.0347 106.025 43.144 106.121 43.288C106.223 43.4267 106.273 43.6107 106.273 43.84C106.273 44.0853 106.204 44.2987 106.065 44.48C105.932 44.656 105.735 44.7947 105.473 44.896C105.217 44.992 104.905 45.04 104.537 45.04ZM107.315 45V40.8H107.883V45H107.315ZM107.603 39.872C107.486 39.872 107.387 39.832 107.307 39.752C107.227 39.672 107.187 39.576 107.187 39.464C107.187 39.352 107.227 39.2587 107.307 39.184C107.387 39.104 107.486 39.064 107.603 39.064C107.721 39.064 107.819 39.1013 107.899 39.176C107.979 39.2507 108.019 39.344 108.019 39.456C108.019 39.5733 107.979 39.672 107.899 39.752C107.825 39.832 107.726 39.872 107.603 39.872ZM111.256 46.592C110.872 46.592 110.504 46.536 110.152 46.424C109.8 46.312 109.515 46.152 109.296 45.944L109.584 45.512C109.781 45.688 110.024 45.8267 110.312 45.928C110.605 46.0347 110.915 46.088 111.24 46.088C111.773 46.088 112.165 45.9627 112.416 45.712C112.667 45.4667 112.792 45.0827 112.792 44.56V43.512L112.872 42.792L112.816 42.072V40.8H113.36V44.488C113.36 45.2133 113.181 45.744 112.824 46.08C112.472 46.4213 111.949 46.592 111.256 46.592ZM111.152 44.84C110.752 44.84 110.392 44.7547 110.072 44.584C109.752 44.408 109.499 44.1653 109.312 43.856C109.131 43.5467 109.04 43.192 109.04 42.792C109.04 42.392 109.131 42.04 109.312 41.736C109.499 41.4267 109.752 41.1867 110.072 41.016C110.392 40.8453 110.752 40.76 111.152 40.76C111.525 40.76 111.861 40.8373 112.16 40.992C112.459 41.1467 112.696 41.376 112.872 41.68C113.048 41.984 113.136 42.3547 113.136 42.792C113.136 43.2293 113.048 43.6 112.872 43.904C112.696 44.208 112.459 44.44 112.16 44.6C111.861 44.76 111.525 44.84 111.152 44.84ZM111.208 44.336C111.517 44.336 111.792 44.272 112.032 44.144C112.272 44.0107 112.461 43.8293 112.6 43.6C112.739 43.3653 112.808 43.096 112.808 42.792C112.808 42.488 112.739 42.2213 112.6 41.992C112.461 41.7627 112.272 41.584 112.032 41.456C111.792 41.3227 111.517 41.256 111.208 41.256C110.904 41.256 110.629 41.3227 110.384 41.456C110.144 41.584 109.955 41.7627 109.816 41.992C109.683 42.2213 109.616 42.488 109.616 42.792C109.616 43.096 109.683 43.3653 109.816 43.6C109.955 43.8293 110.144 44.0107 110.384 44.144C110.629 44.272 110.904 44.336 111.208 44.336ZM117.084 40.76C117.426 40.76 117.724 40.8267 117.98 40.96C118.242 41.088 118.444 41.2853 118.588 41.552C118.738 41.8187 118.812 42.1547 118.812 42.56V45H118.244V42.616C118.244 42.1733 118.132 41.84 117.908 41.616C117.69 41.3867 117.38 41.272 116.98 41.272C116.682 41.272 116.42 41.3333 116.196 41.456C115.978 41.5733 115.807 41.7467 115.684 41.976C115.567 42.2 115.508 42.472 115.508 42.792V45H114.94V40.8H115.484V41.952L115.396 41.736C115.53 41.432 115.743 41.1947 116.036 41.024C116.33 40.848 116.679 40.76 117.084 40.76Z"/>
</svg>
