<svg xmlns="http://www.w3.org/2000/svg" viewBox="0 0 355 80" fill="#fff">
<path d="m60.764 44.046.091-9.84c0-12.873-5.59-18.298-14.022-18.298-7.882 0-12.83 5.701-15.672 11.678-1.65-8.184-6.599-11.678-13.38-11.678-8.25 0-13.199 6.161-16.04 12.414l.092-10.943c0-.184-.092-.276-.275-.276H.275c-.183 0-.275.092-.275.276l.183 26.759L0 64.092c0 .184.092.276.275.276h1.283c.183 0 .275-.092.275-.276l-.092-20.046V31.264c3.666-8.276 8.34-13.793 15.856-13.793 7.423 0 12.464 4.506 12.464 17.012v9.563l-.091 20.046c0 .184.091.276.274.276h1.284c.183 0 .274-.092.274-.276l-.091-20.046.091-9.84a33.6 33.6 0 0 0-.274-4.413c3.574-7.448 7.973-12.23 15.122-12.23 7.423 0 12.464 4.506 12.464 16.92v9.655l-.091 19.954c0 .184.091.276.274.276h1.284c.183 0 .274-.092.274-.276l-.091-20.046zM75.228 80h1.1c.183 0 .275 0 .366-.184L98.415 17.38c.092-.184 0-.367-.275-.367h-1.283c-.183 0-.275.091-.366.183L81.277 61.701 64.138 17.195c-.091-.091-.183-.183-.366-.183h-1.283c-.275 0-.275.183-.275.367l18.33 46.897-5.5 15.448c-.091.184 0 .276.184.276zm28.467-39.724c0-11.494 4.674-20.782 15.305-20.782 9.532 0 15.122 8.184 15.031 21.701-.092 13.61-6.049 20.506-15.214 20.506-10.448 0-15.122-9.563-15.122-21.425zm34.093 24.092c.275 0 .459-.184.459-.46l-.184-38.069.184-25.38c0-.275-.184-.459-.459-.459h-3.757c-.275 0-.459.184-.459.46l.092 25.471C130.64 19.494 125.232 16 117.992 16c-12.189 0-18.88 11.126-18.88 24.736 0 13.793 6.599 24.551 18.88 24.551 7.515 0 12.923-3.954 15.855-10.39l-.183 9.011c0 .276.183.46.458.46h3.666zm40.5-16.736c-.275 0-.459.184-.55.46-1.467 8.552-6.233 13.701-14.848 13.701-11.181 0-16.863-7.816-16.863-21.15l36.018-.091c.275 0 .458-.184.458-.46C182.32 24.828 174.805 16 162.249 16c-12.648 0-20.713 10.299-20.713 24.828 0 14.528 7.332 24.551 21.263 24.551 11.364 0 17.78-6.712 19.429-17.287.092-.276-.091-.46-.366-.46h-3.574zm-.642-10.758H146.21c1.1-10.575 6.691-17.288 16.039-17.288 10.081 0 15.305 7.724 15.397 17.288zm46.91 10.482c0-.276-.183-.46-.458-.46h-3.391c-.275 0-.458.184-.458.46-.825 8.736-5.957 14.437-15.397 14.437-10.998-.092-16.131-8.092-16.131-20.965 0-12.874 5.224-21.15 16.222-21.15 8.615 0 13.564 4.874 14.664 12.966.092.276.275.46.55.46h3.391c.275 0 .458-.276.458-.46C223.09 22.713 216.308 16 204.943 16c-13.656 0-20.804 10.023-20.804 24.828 0 14.804 7.149 24.551 20.621 24.551 12.189 0 18.972-7.632 19.796-18.023zm43.452-6.62c0-14.805-7.516-24.736-21.08-24.736-13.656 0-21.079 9.931-21.079 24.736 0 14.804 7.423 24.643 21.079 24.643 13.564 0 21.08-9.93 21.08-24.643zm-37.577 0c0-12.874 5.499-21.058 16.497-21.15 10.907 0 16.406 8.368 16.406 21.15 0 12.873-5.408 21.057-16.406 21.057-10.906 0-16.497-8.184-16.497-21.057zm45.048 23.632c.275 0 .458-.184.458-.46l-.183-28.23c1.191-10.483 8.431-15.264 15.397-15.264 1.374 0 2.474.184 3.391.46.275 0 .458-.184.458-.368V17.47a.691.691 0 0 0-.458-.643c-.917-.276-2.2-.368-3.483-.368-6.415 0-12.281 3.586-15.489 9.655l.367-8.644c0-.276-.183-.46-.458-.46h-3.758c-.275 0-.458.184-.458.46l.183 22.437-.183 24c0 .276.183.46.458.46h3.758z"/>
</svg>